<svg width="1600" height="960" viewBox="0 0 1600 960" fill="none" xmlns="http://www.w3.org/2000/svg">
  <defs>
    <linearGradient id="bg" x1="160" y1="104" x2="1382" y2="852" gradientUnits="userSpaceOnUse">
      <stop stop-color="#08131F"/>
      <stop offset="1" stop-color="#13283F"/>
    </linearGradient>
    <linearGradient id="panel" x1="362" y1="218" x2="1186" y2="768" gradientUnits="userSpaceOnUse">
      <stop stop-color="#7DD3FC" stop-opacity="0.22"/>
      <stop offset="1" stop-color="#22C55E" stop-opacity="0.14"/>
    </linearGradient>
  </defs>
  <rect width="1600" height="960" rx="44" fill="url(#bg)"/>
  <circle cx="1320" cy="736" r="240" fill="#22C55E" fill-opacity="0.06"/>
  <circle cx="248" cy="160" r="190" fill="#7DD3FC" fill-opacity="0.08"/>
  <rect x="98" y="88" width="1404" height="784" rx="34" fill="#0B1626" stroke="#334155" stroke-width="2"/>
  <rect x="146" y="138" width="1310" height="72" rx="22" fill="#12263D"/>
  <rect x="188" y="164" width="130" height="18" rx="9" fill="#7DD3FC"/>
  <rect x="188" y="262" width="580" height="184" rx="28" fill="url(#panel)" stroke="#334155"/>
  <rect x="228" y="308" width="234" height="16" rx="8" fill="#E2E8F0" fill-opacity="0.88"/>
  <rect x="228" y="348" width="448" height="14" rx="7" fill="#CBD5E1" fill-opacity="0.58"/>
  <rect x="228" y="398" width="172" height="44" rx="22" fill="#22C55E" fill-opacity="0.82"/>
  <rect x="188" y="486" width="332" height="326" rx="28" fill="#0F1F32" stroke="#334155"/>
  <rect x="556" y="486" width="540" height="326" rx="28" fill="#0F1F32" stroke="#334155"/>
  <rect x="598" y="530" width="176" height="14" rx="7" fill="#E2E8F0" fill-opacity="0.82"/>
  <rect x="598" y="572" width="454" height="104" rx="20" fill="#162C46"/>
  <rect x="626" y="606" width="164" height="12" rx="6" fill="#7DD3FC"/>
  <rect x="626" y="634" width="356" height="12" rx="6" fill="#CBD5E1" fill-opacity="0.54"/>
  <rect x="1140" y="262" width="316" height="550" rx="28" fill="#0F1F32" stroke="#334155"/>
  <rect x="1182" y="308" width="126" height="16" rx="8" fill="#E2E8F0" fill-opacity="0.84"/>
  <rect x="1182" y="360" width="232" height="70" rx="18" fill="#152B44"/>
  <rect x="1182" y="456" width="232" height="70" rx="18" fill="#152B44"/>
  <rect x="1182" y="552" width="232" height="70" rx="18" fill="#152B44"/>
  <rect x="1182" y="668" width="186" height="44" rx="22" fill="#132C47" stroke="#7DD3FC" stroke-opacity="0.4"/>
</svg>