<svg width="1600" height="960" viewBox="0 0 1600 960" fill="none" xmlns="http://www.w3.org/2000/svg">
  <defs>
    <linearGradient id="bg" x1="220" y1="80" x2="1370" y2="860" gradientUnits="userSpaceOnUse">
      <stop stop-color="#071421"/>
      <stop offset="1" stop-color="#102941"/>
    </linearGradient>
    <linearGradient id="accent" x1="260" y1="180" x2="1210" y2="760" gradientUnits="userSpaceOnUse">
      <stop stop-color="#7DD3FC" stop-opacity="0.35"/>
      <stop offset="1" stop-color="#A78BFA" stop-opacity="0.22"/>
    </linearGradient>
  </defs>
  <rect width="1600" height="960" rx="44" fill="url(#bg)"/>
  <circle cx="1310" cy="182" r="210" fill="#7DD3FC" fill-opacity="0.08"/>
  <circle cx="258" cy="806" r="250" fill="#A78BFA" fill-opacity="0.08"/>
  <rect x="112" y="98" width="1376" height="764" rx="34" fill="#0B1626" stroke="#334155" stroke-width="2"/>
  <rect x="154" y="138" width="1292" height="86" rx="22" fill="#12263D"/>
  <rect x="194" y="170" width="164" height="18" rx="9" fill="#7DD3FC" fill-opacity="0.9"/>
  <rect x="1094" y="164" width="102" height="28" rx="14" fill="#132C47" stroke="#7DD3FC" stroke-opacity="0.45"/>
  <rect x="1216" y="164" width="166" height="28" rx="14" fill="#172E4A"/>
  <rect x="154" y="266" width="790" height="520" rx="28" fill="url(#accent)" stroke="#475569" stroke-opacity="0.32"/>
  <rect x="206" y="336" width="388" height="28" rx="14" fill="#E2E8F0" fill-opacity="0.92"/>
  <rect x="206" y="390" width="556" height="18" rx="9" fill="#CBD5E1" fill-opacity="0.72"/>
  <rect x="206" y="428" width="522" height="18" rx="9" fill="#CBD5E1" fill-opacity="0.56"/>
  <rect x="206" y="536" width="178" height="54" rx="27" fill="#7DD3FC"/>
  <rect x="404" y="536" width="208" height="54" rx="27" fill="#132C47" stroke="#7DD3FC" stroke-opacity="0.34"/>
  <rect x="206" y="646" width="196" height="92" rx="22" fill="#10263F" stroke="#334155"/>
  <rect x="424" y="646" width="196" height="92" rx="22" fill="#10263F" stroke="#334155"/>
  <rect x="642" y="646" width="196" height="92" rx="22" fill="#10263F" stroke="#334155"/>
  <rect x="988" y="266" width="458" height="240" rx="28" fill="#101F33" stroke="#334155"/>
  <rect x="1030" y="312" width="186" height="16" rx="8" fill="#E2E8F0" fill-opacity="0.86"/>
  <rect x="1030" y="352" width="338" height="14" rx="7" fill="#CBD5E1" fill-opacity="0.56"/>
  <rect x="1030" y="430" width="364" height="18" rx="9" fill="#A78BFA" fill-opacity="0.78"/>
  <rect x="988" y="532" width="458" height="254" rx="28" fill="#101F33" stroke="#334155"/>
  <rect x="1030" y="578" width="144" height="14" rx="7" fill="#E2E8F0" fill-opacity="0.8"/>
  <rect x="1030" y="616" width="372" height="96" rx="20" fill="#172E4A"/>
  <rect x="1056" y="642" width="126" height="14" rx="7" fill="#7DD3FC"/>
  <rect x="1056" y="674" width="286" height="12" rx="6" fill="#CBD5E1" fill-opacity="0.56"/>
  <rect x="1216" y="170" width="76" height="16" rx="8" fill="#E2E8F0" fill-opacity="0.68"/>
</svg>